<!-- SPDX-License-Identifier: Apache-2.0 -->
<svg xmlns="http://www.w3.org/2000/svg" viewBox="0 0 620 428" role="img" aria-labelledby="title desc">
  <title id="title">Klein mark</title>
  <desc id="desc">Streaming paths folded into a Klein bottle.</desc>
  <defs>
    <linearGradient id="navy" x1="0%" y1="0%" x2="100%" y2="100%">
      <stop stop-color="#143D68"/>
      <stop offset="1" stop-color="#082A4D"/>
    </linearGradient>
    <linearGradient id="cyan" x1="0%" y1="0%" x2="100%" y2="100%">
      <stop stop-color="#18B7E3"/>
      <stop offset="1" stop-color="#069DCE"/>
    </linearGradient>
    <linearGradient id="node" x1="0%" y1="0%" x2="0%" y2="100%">
      <stop stop-color="#DDF2F9"/>
      <stop offset="1" stop-color="#9DCEE0"/>
    </linearGradient>
  </defs>

<path d="M0 0 C0.93 0.73 1.86 1.46 2.82 2.21 C5.23 4.12 7.62 6.06 10 8 C11.25 9.01 11.25 9.01 12.52 10.03 C23.52 18.93 34.17 28.25 44.6 37.81 C46.67 39.7 48.76 41.54 50.88 43.38 C55 46.96 58.99 50.67 63 54.38 C73.63 64.22 84.43 73.84 95.46 83.25 C98.44 85.8 101.41 88.35 104.35 90.95 C124.87 109 147.26 124.77 173.44 133.25 C174.15 133.48 174.87 133.72 175.6 133.96 C188.92 138.07 202.01 139.55 215.88 139.44 C216.61 139.44 217.35 139.43 218.11 139.43 C228.21 139.4 237.83 138.79 247.57 135.97 C251.09 134.98 254.38 134.44 258 134 C258.03 135.24 258.05 136.48 258.08 137.76 C258.13 139.4 258.19 141.05 258.25 142.69 C258.26 143.5 258.28 144.32 258.29 145.16 C258.5 150.32 259.04 153.32 263 157 C264.85 158.18 264.85 158.18 266.75 158.81 C268.36 159.4 268.36 159.4 270 160 C245.06 181.24 200.2 185.21 169.25 182.78 C118.26 177.56 72.41 146.29 39.8 108.08 C37.63 105.57 35.38 103.13 33.12 100.69 C29.05 96.22 25.2 91.63 21.39 86.93 C9.62 72.51 -2.9 58.71 -16.34 45.82 C-18 44 -18 44 -18 42 C-18.56 41.77 -19.11 41.55 -19.69 41.31 C-22.61 39.65 -24.68 37.39 -27 35 C-35.66 26.16 -44.21 17.59 -54 10 C-54.78 9.35 -55.56 8.7 -56.37 8.04 C-78.89 -10.61 -102.24 -22.42 -132 -20 C-136.19 -19.38 -140.02 -18.41 -144 -17 C-144.84 -16.72 -145.69 -16.44 -146.55 -16.16 C-164.39 -9.71 -177.88 4.11 -185.97 21.02 C-189.72 29.21 -189.72 29.21 -191 38 C-189.72 38.06 -188.44 38.12 -187.12 38.18 C-185.42 38.27 -183.71 38.35 -182 38.44 C-181.16 38.48 -180.32 38.52 -179.46 38.56 C-174.26 38.82 -169.16 39.29 -164 40 C-164 44.95 -164 49.9 -164 55 C-174.23 54.67 -184.46 54.34 -195 54 C-195.51 79.92 -195.51 79.92 -188.77 104.6 C-187.94 107.19 -187.86 109.29 -188 112 C-210.91 116.56 -210.91 116.56 -217 115 C-220.56 110.88 -221.4 105.3 -222.62 100.12 C-222.84 99.25 -223.06 98.38 -223.28 97.48 C-231.71 62.9 -224.97 26.24 -207.11 -4.2 C-204.46 -8.48 -201.34 -12.25 -198 -16 C-197.4 -16.74 -196.8 -17.49 -196.18 -18.25 C-180.38 -37.29 -155.66 -48.58 -131.42 -51.72 C-83.24 -55.68 -36.67 -28.93 0 0 Z " fill="url(#navy)" transform="translate(226,149)"/>



<path d="M0 0 C0.99 0.18 0.99 0.18 2 0.36 C36.25 6.7 67.26 27.64 87.36 55.92 C113.92 94.65 123.58 144.09 115.03 190.3 C110.7 210.91 102.84 230.54 91 248 C90.63 248.56 90.26 249.12 89.87 249.69 C83.7 258.91 76.73 267.06 69 275 C68.17 275.85 67.35 276.71 66.5 277.59 C62.66 281.5 62.66 281.5 61 283 C60.67 283 60.34 283 60 283 C59.98 282.05 59.98 282.05 59.96 281.08 C59.88 278.17 59.78 275.28 59.69 272.38 C59.66 271.38 59.64 270.38 59.62 269.35 C59.42 263.91 59.18 259.62 56 255 C52.95 253.1 52.95 253.1 50 252 C51.4 248.83 53.09 246.72 55.5 244.25 C79.88 217.26 87.64 179.33 86 144 C83.24 108.96 69.05 75.21 42 52 C21.32 35.92 -3.51 29.55 -29.38 29.62 C-30.12 29.63 -30.87 29.63 -31.64 29.63 C-44.45 29.68 -56.57 30.74 -69 34 C-70.39 34.36 -70.39 34.36 -71.81 34.73 C-112.51 45.63 -148.86 67.58 -180.92 94.51 C-183.19 96.13 -185.41 97.01 -188 98 C-188.47 97.5 -188.95 96.99 -189.44 96.47 C-191.58 94.19 -193.73 91.91 -195.88 89.62 C-196.62 88.83 -197.37 88.04 -198.14 87.22 C-199.21 86.08 -199.21 86.08 -200.3 84.91 C-200.96 84.21 -201.62 83.51 -202.3 82.79 C-203.52 81.51 -204.75 80.25 -206 79 C-206 78.01 -206 77.02 -206 76 C-204.38 74.41 -204.38 74.41 -202 72.62 C-200.63 71.57 -200.63 71.57 -199.22 70.49 C-198.71 70.1 -198.19 69.71 -197.66 69.3 C-195.87 67.9 -194.12 66.46 -192.37 65.01 C-182.91 57.16 -173.17 49.9 -163 43 C-162.32 42.54 -161.65 42.08 -160.95 41.6 C-128.24 19.42 -92.19 4.7 -53 -1 C-52.29 -1.1 -51.58 -1.21 -50.85 -1.31 C-34.34 -3.44 -16.35 -3.06 0 0 Z " fill="url(#cyan)" transform="translate(479,2)"/>


<path d="M0 0 C1.8 3.09 2.26 5.34 2.27 8.9 C2.27 9.86 2.27 10.83 2.28 11.82 C2.27 12.85 2.26 13.88 2.25 14.94 C2.24 16.01 2.23 17.08 2.23 18.19 C1.53 69.11 -17.48 114.78 -52 152 C-52.54 152.59 -53.08 153.18 -53.63 153.79 C-80.93 182.6 -121.92 198.5 -161.02 199.92 C-162.49 199.96 -162.49 199.96 -164 200 C-163.73 199.48 -163.46 198.97 -163.19 198.44 C-162.6 197.23 -162.6 197.23 -162 196 C-161.48 194.97 -160.95 193.93 -160.41 192.87 C-158.51 188.38 -158.48 183.94 -158.38 179.12 C-158.32 177.42 -158.27 175.71 -158.21 174.01 C-158.19 173.26 -158.18 172.52 -158.16 171.75 C-158 170 -158 170 -157 169 C-155.28 168.8 -153.56 168.61 -151.83 168.46 C-117.72 165.26 -87.52 148.34 -65.45 122.16 C-50.4 103.59 -36.87 79.58 -33.67 55.53 C-32.79 48.95 -29.31 45.75 -24.79 41.07 C-16.56 32.3 -10.92 21.42 -5.79 10.66 C-4.04 6.99 -2.05 3.5 0 0 Z " fill="url(#navy)" transform="translate(593,228)"/>

<path d="M0 0 C1.71 1.28 3.37 2.62 5 4 C5 4.66 5 5.32 5 6 C5.59 6.26 6.18 6.53 6.79 6.8 C9.07 8.04 10.5 9.3 12.29 11.16 C12.89 11.78 13.5 12.41 14.12 13.05 C14.76 13.72 15.4 14.38 16.06 15.06 C21.2 20.29 26.37 25.24 32.15 29.77 C34.27 31.43 36.33 33.12 38.38 34.86 C47.6 42.63 57.27 48.54 68 54 C68.7 54.37 69.41 54.73 70.13 55.11 C80.83 60.64 91.71 64.33 103.32 67.46 C105 68 105 68 106 69 C106.13 70.71 106.2 72.42 106.25 74.14 C106.28 75.19 106.31 76.24 106.35 77.33 C106.41 79.55 106.46 81.77 106.52 83.99 C106.69 89.33 106.84 94.02 109 99 C102.18 98.53 95.96 97.41 89.44 95.38 C88.57 95.11 87.71 94.84 86.82 94.57 C43.42 80.86 11.41 52.76 -20 21 C-18.2 17.11 -15.88 14.64 -12.81 11.62 C-12.32 11.14 -11.83 10.66 -11.33 10.16 C-7.69 6.6 -3.93 3.24 0 0 Z " fill="url(#cyan)" transform="translate(276,325)"/>
<path d="M0 0 C3.93 2.85 6.95 6.1 10.09 9.76 C12.17 12.2 14.3 14.6 16.44 17 C17.12 17.76 17.8 18.53 18.5 19.31 C18.99 19.87 19.49 20.43 20 21 C18.91 24.26 18.25 24.88 15.69 27 C12.1 30.04 8.63 33.18 5.19 36.38 C0.48 40.73 -4.38 44.82 -9.38 48.84 C-11.86 50.88 -14.17 53.03 -16.5 55.25 C-23.98 62.06 -32.58 67.44 -41 73 C-41.65 73.43 -42.3 73.87 -42.97 74.31 C-49.68 78.78 -56.52 82.98 -63.5 87 C-64.49 87.58 -64.49 87.58 -65.5 88.17 C-69.37 90.36 -72.62 91.38 -77 92 C-77.03 91.14 -77.05 90.27 -77.08 89.39 C-77.17 86.18 -77.27 82.98 -77.37 79.77 C-77.42 78.39 -77.46 77 -77.5 75.62 C-77.56 73.62 -77.62 71.63 -77.68 69.64 C-77.72 68.44 -77.76 67.24 -77.79 66 C-77.88 62.95 -77.88 62.95 -79 60 C-77.55 59.22 -77.55 59.22 -76.06 58.42 C-51.48 45 -30.14 27.38 -9.64 8.43 C-6.49 5.54 -3.27 2.75 0 0 Z " fill="url(#cyan)" transform="translate(219,219)"/>

<path d="M0 0 C0 4.29 0 8.58 0 13 C-5.25 15.38 -10.51 17.62 -15.89 19.69 C-59.49 36.54 -96.17 65.44 -131 96 C-131.9 96.78 -132.79 97.56 -133.71 98.37 C-135.48 99.91 -137.24 101.45 -139 103 C-142.24 101.56 -144.62 99.74 -147.25 97.38 C-148.31 96.43 -148.31 96.43 -149.39 95.46 C-149.92 94.98 -150.45 94.5 -151 94 C-149.93 90.78 -149.32 90.17 -146.81 88.06 C-145.72 87.14 -145.72 87.14 -144.61 86.2 C-143.75 85.47 -142.89 84.75 -142 84 C-140.97 83.11 -139.94 82.22 -138.92 81.33 C-102.06 49.39 -61.62 18.14 -14.94 2.31 C-13.91 1.96 -12.88 1.61 -11.82 1.25 C-10.37 0.78 -10.37 0.78 -8.9 0.3 C-8.05 0.02 -7.2 -0.25 -6.32 -0.54 C-4 -1 -4 -1 0 0 Z " fill="url(#navy)" transform="translate(421,79)"/>
<path d="M0 0 C2.1 2.57 4.11 5.15 6.01 7.87 C16.15 22.27 29.16 28.46 46.11 31.52 C47.06 31.68 48.02 31.84 49 32 C49.01 32.71 49.03 33.41 49.04 34.14 C49.12 37.34 49.22 40.55 49.31 43.75 C49.34 44.86 49.36 45.97 49.38 47.12 C49.42 48.19 49.45 49.26 49.49 50.36 C49.51 51.34 49.54 52.33 49.57 53.34 C50.06 56.36 51.08 57.68 53 60 C53 60.66 53 61.32 53 62 C30.27 63.3 9.56 55.23 -7.62 40.31 C-17.98 30.5 -24.93 19.26 -30 6 C-29.67 5.34 -29.34 4.68 -29 4 C-28.33 4.02 -27.66 4.05 -26.97 4.07 C-17.85 4.24 -9.02 3.2 0 2 C0 1.34 0 0.68 0 0 Z " fill="url(#cyan)" transform="translate(38,259)"/>
<path d="M0 0 C22.79 2.18 43.18 18.02 57.55 35.02 C64.33 43.32 70.3 52.13 75.9 61.26 C77.05 63.14 77.05 63.14 78.8 65.29 C80.8 69.8 80.35 74.44 80.25 79.31 C80.24 80.32 80.24 81.33 80.23 82.37 C80.18 87.99 79.82 93.44 79 99 C78.34 99 77.68 99 77 99 C76.71 98.38 76.43 97.76 76.13 97.13 C68.36 80.41 60.31 64.64 49 50 C48.3 49.09 47.61 48.17 46.89 47.23 C33.95 30.8 19.65 21.93 0 16 C0 10.72 0 5.44 0 0 Z " fill="url(#navy)" transform="translate(476,76)"/>
<path d="M0 0 C5.39 4.5 10.39 9.26 15.34 14.24 C16.11 15.01 16.87 15.78 17.66 16.57 C20.09 19 22.51 21.44 24.94 23.88 C26.59 25.53 28.25 27.19 29.9 28.85 C33.94 32.9 37.97 36.95 42 41 C40.48 44.2 38.97 46.21 36.34 48.6 C35.63 49.26 34.92 49.91 34.19 50.59 C33.44 51.26 32.7 51.93 31.94 52.62 C30.47 53.97 28.99 55.32 27.53 56.66 C26.87 57.26 26.22 57.85 25.55 58.46 C23.9 59.94 23.9 59.94 23 62 C19.09 60.41 16.63 57.86 13.69 54.88 C12.78 53.96 11.88 53.05 10.95 52.12 C8.84 49.93 6.84 47.66 4.86 45.35 C0.04 39.8 -5.22 34.67 -10.44 29.5 C-11.47 28.48 -12.49 27.45 -13.52 26.43 C-16.01 23.95 -18.5 21.47 -21 19 C-18.13 15.32 -15.28 12.41 -11.62 9.5 C-10.18 8.34 -10.18 8.34 -8.71 7.16 C-7.81 6.45 -6.92 5.73 -6 5 C-3.99 3.34 -2 1.67 0 0 Z " fill="url(#cyan)" transform="translate(222,271)"/>
<path d="M0 0 C4.98 2.19 8.08 5.96 11.75 9.88 C12.45 10.6 13.14 11.32 13.86 12.06 C14.52 12.76 15.18 13.46 15.86 14.18 C16.46 14.82 17.07 15.45 17.69 16.11 C19 18 19 18 19 22 C17.75 23.63 17.75 23.63 16 25.21 C15.36 25.79 14.73 26.37 14.07 26.97 C13.39 27.58 12.71 28.19 12 28.81 C11.31 29.44 10.61 30.07 9.9 30.72 C6.02 34.24 2.09 37.68 -1.9 41.07 C-3.75 42.77 -5.49 44.52 -7.23 46.34 C-8.1 47.24 -8.1 47.24 -8.98 48.16 C-10.15 49.37 -11.3 50.59 -12.43 51.82 C-14.05 53.5 -14.05 53.5 -17 56 C-21.19 55.56 -23.76 52.93 -26.81 50.25 C-31.07 46.6 -35.36 43.16 -40 40 C-37.11 33.25 -30.67 28.37 -25.19 23.69 C-21.05 20.15 -17.27 16.3 -13.45 12.43 C-9.46 8.41 -5.32 4.65 -1 1 C-0.67 0.67 -0.34 0.34 0 0 Z " fill="url(#cyan)" transform="translate(259,91)"/>
<path d="M0 0 C1.32 0 2.64 0.01 4 0.01 C4.68 0.02 5.36 0.04 6.06 0.05 C8.15 0.09 10.23 0.09 12.32 0.09 C22.17 0.18 22.17 0.18 25.48 1.66 C27.88 4.55 27.64 7.42 27.59 11 C27.59 11.72 27.59 12.44 27.59 13.19 C27.59 14.71 27.58 16.23 27.56 17.75 C27.53 20.09 27.54 22.41 27.55 24.75 C27.54 26.23 27.53 27.71 27.52 29.19 C27.53 29.88 27.53 30.58 27.53 31.3 C27.48 34.01 27.35 36.13 26.01 38.53 C21.5 41.03 15.48 40.11 10.41 40.09 C8.16 40.09 5.92 40.14 3.67 40.18 C2.24 40.18 0.81 40.19 -0.62 40.19 C-1.93 40.19 -3.23 40.2 -4.57 40.21 C-7.91 39.59 -7.91 39.59 -10.33 37.47 C-13.3 32.06 -12.52 26.13 -12.47 20.09 C-12.51 18.12 -12.51 18.12 -12.54 16.1 C-12.54 14.83 -12.54 13.56 -12.54 12.25 C-12.54 11.09 -12.54 9.94 -12.54 8.74 C-11.12 1.67 -6.7 -0.04 0 0 Z " fill="url(#navy)" transform="translate(81.91015625,176.40625)"/>
<path d="M0 0 C1.27 -0 2.55 -0 3.86 -0.01 C4.52 0.01 5.18 0.02 5.86 0.03 C7.87 0.07 9.88 0.05 11.89 0.03 C21.52 0.11 21.52 0.11 24.69 2.21 C26.92 5.55 26.81 7.92 26.8 11.91 C26.81 12.61 26.81 13.31 26.81 14.03 C26.81 15.5 26.8 16.97 26.78 18.44 C26.75 20.69 26.75 22.94 26.77 25.19 C26.76 26.62 26.75 28.05 26.74 29.48 C26.73 30.78 26.72 32.08 26.71 33.41 C26.31 36.63 26.31 36.63 25.21 38.55 C22.28 40.21 19.72 40.04 16.38 40.06 C15.7 40.07 15.03 40.07 14.33 40.08 C12.91 40.08 11.48 40.08 10.06 40.07 C7.88 40.07 5.71 40.1 3.53 40.13 C2.15 40.13 0.76 40.13 -0.62 40.12 C-2.51 40.13 -2.51 40.13 -4.44 40.13 C-7.69 39.63 -7.69 39.63 -10.1 38.02 C-13.13 33.47 -12.32 28.08 -12.27 22.78 C-12.25 20.7 -12.29 18.62 -12.33 16.54 C-12.32 15.22 -12.32 13.9 -12.32 12.54 C-12.32 10.73 -12.32 10.73 -12.32 8.89 C-10.97 1.88 -6.68 -0 0 0 Z " fill="url(#navy)" transform="translate(503.69140625,260.37109375)"/>
<path d="M0 0 C1.92 -0.01 1.92 -0.01 3.87 -0.01 C4.53 -0.01 5.2 0 5.88 0.01 C7.9 0.02 9.92 0.01 11.94 -0.01 C13.86 -0.01 13.86 -0.01 15.81 0 C16.98 0 18.15 0.01 19.35 0.01 C22.77 0.44 24.18 0.77 26.41 3.4 C26.91 6.52 26.91 6.52 26.9 10.33 C26.9 11.01 26.91 11.68 26.91 12.38 C26.91 13.8 26.89 15.23 26.87 16.65 C26.84 18.83 26.85 21 26.87 23.17 C26.86 24.56 26.85 25.95 26.84 27.33 C26.83 28.59 26.82 29.85 26.81 31.15 C26.37 34.65 26.11 36.12 23.41 38.4 C20.38 38.9 20.38 38.9 16.69 38.89 C16.04 38.9 15.39 38.9 14.72 38.9 C13.34 38.9 11.96 38.89 10.58 38.86 C8.48 38.84 6.38 38.84 4.28 38.86 C2.93 38.85 1.59 38.84 0.25 38.83 C-1.57 38.82 -1.57 38.82 -3.43 38.8 C-6.91 38.36 -8.35 38.09 -10.59 35.4 C-11.11 32.17 -11.11 32.17 -11.12 28.21 C-11.13 27.51 -11.13 26.81 -11.14 26.09 C-11.14 24.62 -11.13 23.14 -11.12 21.67 C-11.09 19.41 -11.12 17.15 -11.14 14.89 C-11.14 13.46 -11.13 12.02 -11.12 10.59 C-11.12 8.63 -11.12 8.63 -11.11 6.63 C-10.59 3.4 -10.59 3.4 -8.97 1.47 C-5.86 0.07 -3.42 0.01 0 0 Z " fill="url(#cyan)" transform="translate(106.59375,278.6015625)"/>
<path d="M0 0 C1.18 -0 2.37 -0 3.59 -0 C4.82 0.02 6.04 0.04 7.31 0.06 C8.54 0.05 9.77 0.04 11.04 0.04 C19.89 0.1 19.89 0.1 23.1 1.59 C25.57 4.45 25.25 6.73 25.24 10.46 C25.24 11.14 25.25 11.82 25.25 12.52 C25.24 13.94 25.23 15.37 25.21 16.8 C25.18 18.99 25.19 21.17 25.21 23.36 C25.2 24.75 25.19 26.14 25.18 27.53 C25.17 28.79 25.16 30.06 25.15 31.36 C24.75 34.5 24.75 34.5 23.34 36.37 C18.3 39.93 11.75 38.72 5.81 38.75 C4.51 38.77 3.21 38.79 1.87 38.81 C0.62 38.81 -0.62 38.82 -1.91 38.82 C-3.05 38.83 -4.2 38.84 -5.37 38.85 C-8.25 38.5 -8.25 38.5 -10.12 37.41 C-12.69 33.07 -11.77 27.18 -11.75 22.24 C-11.75 20.07 -11.8 17.9 -11.84 15.72 C-11.85 14.33 -11.85 12.95 -11.85 11.56 C-11.85 10.3 -11.86 9.05 -11.87 7.75 C-11.25 4.5 -11.25 4.5 -9.11 2.09 C-5.79 0.24 -3.78 -0.01 0 0 Z " fill="url(#node)" transform="translate(441.25390625,61.50390625)"/>
<path d="M0 0 C1.28 -0 2.56 -0 3.88 -0 C4.88 0.01 4.88 0.01 5.9 0.03 C7.93 0.06 9.96 0.05 11.99 0.04 C21.69 0.1 21.69 0.1 24.25 1.59 C25.97 4.52 25.76 7.08 25.77 10.46 C25.77 11.14 25.78 11.82 25.78 12.52 C25.78 13.94 25.77 15.37 25.76 16.8 C25.75 18.99 25.76 21.17 25.78 23.36 C25.78 24.75 25.78 26.14 25.77 27.53 C25.77 28.79 25.76 30.06 25.76 31.36 C25.37 34.5 25.37 34.5 24.27 36.41 C21.39 38.06 18.92 37.89 15.62 37.89 C14.97 37.9 14.31 37.9 13.64 37.9 C12.26 37.91 10.87 37.9 9.49 37.89 C7.38 37.87 5.27 37.89 3.15 37.91 C1.81 37.9 0.46 37.9 -0.88 37.89 C-2.1 37.89 -3.32 37.89 -4.58 37.88 C-7.63 37.5 -7.63 37.5 -9.52 36.39 C-11.2 33.53 -11.04 31.08 -11.06 27.78 C-11.07 27.13 -11.07 26.48 -11.08 25.81 C-11.08 24.43 -11.08 23.05 -11.07 21.67 C-11.07 19.57 -11.1 17.47 -11.13 15.37 C-11.13 14.02 -11.13 12.68 -11.12 11.34 C-11.13 9.52 -11.13 9.52 -11.13 7.66 C-10.63 4.5 -10.63 4.5 -9.01 2.1 C-5.86 -0.02 -3.79 -0.01 0 0 Z " fill="url(#node)" transform="translate(400.62890625,377.50390625)"/>
<path d="M0 0 C2.83 1.33 4.6 3.25 6.76 5.51 C7.56 6.33 8.36 7.16 9.18 8.01 C9.78 8.65 10.39 9.29 11.01 9.95 C7.18 13.24 3.14 15.65 -1.37 17.88 C-2.06 18.23 -2.76 18.58 -3.48 18.93 C-13.12 23.6 -23.41 27.18 -33.99 28.95 C-34.97 29.11 -34.97 29.11 -35.97 29.28 C-43.59 30.34 -51.32 30.01 -58.99 29.95 C-58.99 24.67 -58.99 19.39 -58.99 13.95 C-56.52 14.01 -56.52 14.01 -53.99 14.07 C-36.33 13.99 -19.24 10.5 -4.16 0.95 C-1.99 -0.05 -1.99 -0.05 0 0 Z " fill="url(#navy)" transform="translate(176.9921875,177.0546875)"/>
</svg>
