<!-- SPDX-License-Identifier: Apache-2.0 -->
<svg xmlns="http://www.w3.org/2000/svg" viewBox="0 0 1025 260" role="img" aria-labelledby="title desc">
  <title id="title">Klein for Ray</title>
  <desc id="desc">Klein for Ray wordmark with a continuous data stream folding through itself in the shape of a Klein bottle.</desc>
  <g transform="translate(0 22)" fill="#02A0CF">
    <path d="M 130 10 C 180 10 214 45 214 90 C 214 116 204 137 187 155 C 204 174 214 194 214 208 H 185 C 185 194 176 178 162 164 L 150 153 C 176 125 188 109 188 90 C 188 59 165 36 130 36 C 95 36 72 59 72 90 C 72 114 57 133 44 150 C 29 169 24 190 27 208 H 4 C 0 181 10 155 27 132 C 40 115 48 103 48 90 C 48 45 80 10 130 10 Z"/>
    <rect x="27" y="194" width="158" height="14" rx="5"/>
    <path d="M 72 82 C 72 110 90 132 115 157 L 132 141 C 111 119 96 101 96 82 Z"/>
    <rect x="111" y="139" width="25" height="25" rx="3"/>
    <rect x="91" y="165" width="19" height="19" rx="3"/>
    <rect x="68" y="186" width="19" height="19" rx="3"/>
  </g>
  <defs>
    <path id="word-k" d="M 15.347656 -20.441406 L 15.347656 -35.441406 C 17.164062 -37.523438 18.980469 -39.585938 20.800781 -41.625 C 22.617188 -43.667969 24.441406 -45.710938 26.273438 -47.765625 C 28.101562 -49.816406 29.941406 -51.867188 31.785156 -53.921875 L 54.140625 -78.574219 L 68.996094 -78.574219 L 35.582031 -41.976562 L 34.832031 -41.976562 Z M 7.160156 0 L 7.160156 -78.574219 L 18.890625 -78.574219 L 18.890625 0 Z M 55.535156 0 L 28.472656 -38.765625 L 35.625 -47.867188 L 69.261719 0 Z"/>
    <path id="word-l" d="M 17.414062 -78.574219 L 17.414062 0 L 6.265625 0 L 6.265625 -78.574219 Z"/>
    <path id="word-e" d="M 30.0625 1.265625 C 24.558594 1.265625 19.824219 0.0195312 15.863281 -2.472656 C 11.902344 -4.964844 8.859375 -8.402344 6.738281 -12.785156 C 4.613281 -17.164062 3.550781 -22.15625 3.550781 -27.757812 C 3.550781 -33.421875 4.652344 -38.453125 6.863281 -42.84375 C 9.070312 -47.234375 12.125 -50.683594 16.027344 -53.191406 C 19.925781 -55.699219 24.40625 -56.953125 29.46875 -56.953125 C 33.414062 -56.953125 36.980469 -56.25 40.167969 -54.847656 C 43.359375 -53.445312 46.097656 -51.449219 48.382812 -48.855469 C 50.667969 -46.265625 52.417969 -43.191406 53.640625 -39.640625 C 54.863281 -36.085938 55.472656 -32.160156 55.472656 -27.863281 L 55.472656 -24.8125 L 8.5625 -24.8125 L 8.5625 -33.253906 L 49.640625 -33.253906 L 44.734375 -30.675781 C 44.734375 -34.144531 44.113281 -37.148438 42.871094 -39.691406 C 41.628906 -42.234375 39.875 -44.199219 37.609375 -45.585938 C 35.34375 -46.972656 32.667969 -47.664062 29.574219 -47.664062 C 26.515625 -47.664062 23.859375 -46.972656 21.605469 -45.585938 C 19.351562 -44.199219 17.605469 -42.234375 16.363281 -39.691406 C 15.117188 -37.148438 14.496094 -34.144531 14.496094 -30.675781 L 14.496094 -25.882812 C 14.496094 -22.375 15.109375 -19.277344 16.332031 -16.589844 C 17.554688 -13.902344 19.339844 -11.804688 21.683594 -10.296875 C 24.03125 -8.785156 26.875 -8.03125 30.214844 -8.03125 C 32.648438 -8.03125 34.796875 -8.40625 36.660156 -9.152344 C 38.519531 -9.898438 40.066406 -10.945312 41.300781 -12.285156 C 42.535156 -13.625 43.414062 -15.175781 43.945312 -16.9375 L 54.65625 -16.9375 C 53.960938 -13.34375 52.464844 -10.179688 50.167969 -7.449219 C 47.871094 -4.71875 44.992188 -2.585938 41.539062 -1.042969 C 38.082031 0.496094 34.257812 1.265625 30.0625 1.265625 Z"/>
    <path id="word-i" d="M 6.265625 0 L 6.265625 -55.6875 L 17.414062 -55.6875 L 17.414062 0 Z M 11.828125 -65.261719 C 9.851562 -65.261719 8.183594 -65.921875 6.828125 -67.25 C 5.46875 -68.574219 4.792969 -70.195312 4.792969 -72.105469 C 4.792969 -74.023438 5.46875 -75.640625 6.828125 -76.957031 C 8.183594 -78.277344 9.84375 -78.9375 11.804688 -78.9375 C 13.796875 -78.9375 15.472656 -78.277344 16.832031 -76.960938 C 18.1875 -75.640625 18.867188 -74.015625 18.867188 -72.082031 C 18.867188 -70.175781 18.1875 -68.566406 16.828125 -67.242188 C 15.46875 -65.921875 13.800781 -65.261719 11.828125 -65.261719 Z"/>
    <path id="word-n" d="M 17.414062 -32.039062 L 17.414062 0 L 6.265625 0 L 6.265625 -55.6875 L 17.191406 -55.6875 L 17.191406 -41.855469 L 14.625 -41.855469 C 16.433594 -46.851562 18.964844 -50.585938 22.21875 -53.066406 C 25.476562 -55.542969 29.410156 -56.78125 34.027344 -56.78125 C 37.859375 -56.78125 41.292969 -55.949219 44.328125 -54.289062 C 47.363281 -52.628906 49.765625 -50.164062 51.535156 -46.894531 C 53.300781 -43.625 54.183594 -39.558594 54.183594 -34.6875 L 54.183594 0 L 43.035156 0 L 43.035156 -33.316406 C 43.035156 -37.769531 41.972656 -41.136719 39.84375 -43.414062 C 37.714844 -45.6875 34.710938 -46.824219 30.828125 -46.824219 C 28.3125 -46.824219 26.042969 -46.316406 24.015625 -45.296875 C 21.992188 -44.277344 20.382812 -42.679688 19.195312 -40.503906 C 18.007812 -38.332031 17.414062 -35.511719 17.414062 -32.039062 Z"/>
    <path id="word-f" d="M 33.28125 -55.6875 L 33.28125 -46.488281 L 0.839844 -46.488281 L 0.839844 -55.6875 Z M 10.808594 0 L 10.808594 -64.710938 C 10.808594 -67.648438 11.433594 -70.144531 12.679688 -72.207031 C 13.925781 -74.265625 15.726562 -75.84375 18.085938 -76.933594 C 20.445312 -78.027344 23.285156 -78.574219 26.609375 -78.574219 C 28.046875 -78.574219 29.414062 -78.574219 30.703125 -78.574219 C 31.992188 -78.574219 32.851562 -78.574219 33.28125 -78.574219 L 33.28125 -69.375 C 32.917969 -69.375 32.179688 -69.375 31.058594 -69.375 C 29.9375 -69.375 29.035156 -69.375 28.34375 -69.375 C 26.039062 -69.375 24.398438 -68.882812 23.421875 -67.894531 C 22.445312 -66.90625 21.957031 -65.246094 21.957031 -62.921875 L 21.957031 0 Z"/>
    <path id="word-o" d="M 30.207031 1.265625 C 24.914062 1.265625 20.265625 0.0351562 16.257812 -2.421875 C 12.25 -4.882812 9.128906 -8.292969 6.898438 -12.652344 C 4.664062 -17.011719 3.550781 -22.046875 3.550781 -27.757812 C 3.550781 -33.496094 4.664062 -38.558594 6.898438 -42.945312 C 9.128906 -47.328125 12.25 -50.761719 16.257812 -53.238281 C 20.265625 -55.714844 24.914062 -56.953125 30.207031 -56.953125 C 35.53125 -56.953125 40.191406 -55.714844 44.179688 -53.238281 C 48.171875 -50.761719 51.28125 -47.328125 53.515625 -42.945312 C 55.746094 -38.558594 56.863281 -33.496094 56.863281 -27.757812 C 56.863281 -22.046875 55.746094 -17.011719 53.515625 -12.652344 C 51.28125 -8.292969 48.171875 -4.882812 44.179688 -2.421875 C 40.191406 0.0351562 35.53125 1.265625 30.207031 1.265625 Z M 30.207031 -8.355469 C 33.394531 -8.355469 36.132812 -9.148438 38.425781 -10.730469 C 40.71875 -12.3125 42.488281 -14.566406 43.726562 -17.484375 C 44.96875 -20.402344 45.589844 -23.828125 45.589844 -27.757812 C 45.589844 -31.75 44.96875 -35.207031 43.726562 -38.121094 C 42.488281 -41.039062 40.71875 -43.300781 38.425781 -44.914062 C 36.132812 -46.527344 33.394531 -47.332031 30.207031 -47.332031 C 27.054688 -47.332031 24.324219 -46.535156 22.011719 -44.933594 C 19.699219 -43.335938 17.925781 -41.074219 16.683594 -38.144531 C 15.441406 -35.214844 14.824219 -31.75 14.824219 -27.757812 C 14.824219 -23.796875 15.441406 -20.367188 16.683594 -17.460938 C 17.925781 -14.558594 19.695312 -12.3125 21.992188 -10.730469 C 24.289062 -9.148438 27.027344 -8.355469 30.207031 -8.355469 Z"/>
    <path id="word-r" d="M 6.265625 0 L 6.265625 -55.6875 L 16.953125 -55.6875 L 16.953125 -46.6875 L 17.144531 -46.6875 C 18.164062 -49.726562 19.773438 -52.101562 21.976562 -53.8125 C 24.179688 -55.523438 27.050781 -56.378906 30.597656 -56.378906 C 31.441406 -56.378906 32.222656 -56.351562 32.933594 -56.292969 C 33.644531 -56.234375 34.21875 -56.175781 34.660156 -56.121094 L 34.660156 -45.730469 C 34.238281 -45.816406 33.480469 -45.925781 32.382812 -46.054688 C 31.285156 -46.183594 30.082031 -46.25 28.777344 -46.25 C 26.710938 -46.25 24.8125 -45.773438 23.082031 -44.816406 C 21.347656 -43.863281 19.96875 -42.398438 18.949219 -40.429688 C 17.925781 -38.460938 17.414062 -35.953125 17.414062 -32.910156 L 17.414062 0 Z"/>
    <path id="word-cap-r" d="M 7.160156 0 L 7.160156 -78.574219 L 37.082031 -78.574219 C 42.703125 -78.574219 47.5625 -77.582031 51.65625 -75.59375 C 55.753906 -73.605469 58.910156 -70.78125 61.128906 -67.117188 C 63.347656 -63.453125 64.457031 -59.113281 64.457031 -54.09375 C 64.457031 -49.105469 63.28125 -44.78125 60.925781 -41.128906 C 58.574219 -37.472656 55.285156 -34.65625 51.0625 -32.683594 C 46.835938 -30.707031 41.90625 -29.71875 36.265625 -29.71875 L 13.914062 -29.71875 L 13.914062 -39.695312 L 36.613281 -39.695312 C 39.980469 -39.695312 42.882812 -40.28125 45.320312 -41.449219 C 47.753906 -42.617188 49.628906 -44.28125 50.9375 -46.445312 C 52.25 -48.605469 52.90625 -51.15625 52.90625 -54.09375 C 52.90625 -57.0625 52.242188 -59.613281 50.917969 -61.746094 C 49.59375 -63.875 47.710938 -65.523438 45.277344 -66.695312 C 42.839844 -67.863281 39.921875 -68.445312 36.527344 -68.445312 L 18.890625 -68.445312 L 18.890625 0 Z M 52.480469 0 L 33.839844 -35.390625 L 46.695312 -35.390625 L 65.671875 0 Z"/>
    <path id="word-a" d="M 23.265625 0.871094 C 19.566406 0.871094 16.265625 0.246094 13.359375 -1.007812 C 10.453125 -2.261719 8.15625 -4.136719 6.46875 -6.632812 C 4.777344 -9.132812 3.933594 -12.226562 3.933594 -15.917969 C 3.933594 -19.105469 4.542969 -21.714844 5.761719 -23.746094 C 6.984375 -25.777344 8.625 -27.386719 10.691406 -28.574219 C 12.757812 -29.761719 15.113281 -30.664062 17.757812 -31.285156 C 20.402344 -31.90625 23.132812 -32.378906 25.949219 -32.703125 C 29.449219 -33.144531 32.214844 -33.5 34.242188 -33.769531 C 36.273438 -34.035156 37.722656 -34.457031 38.585938 -35.035156 C 39.449219 -35.609375 39.882812 -36.566406 39.882812 -37.902344 L 39.882812 -38.371094 C 39.882812 -40.1875 39.4375 -41.792969 38.550781 -43.183594 C 37.664062 -44.574219 36.378906 -45.667969 34.695312 -46.460938 C 33.015625 -47.257812 30.992188 -47.65625 28.625 -47.65625 C 26.273438 -47.65625 24.191406 -47.265625 22.382812 -46.492188 C 20.574219 -45.714844 19.136719 -44.652344 18.070312 -43.308594 C 17.003906 -41.960938 16.398438 -40.425781 16.257812 -38.699219 L 5.304688 -38.699219 C 5.503906 -42.257812 6.585938 -45.386719 8.550781 -48.089844 C 10.519531 -50.796875 13.222656 -52.921875 16.667969 -54.464844 C 20.109375 -56.007812 24.148438 -56.78125 28.777344 -56.78125 C 32.199219 -56.78125 35.28125 -56.34375 38.019531 -55.464844 C 40.761719 -54.589844 43.089844 -53.339844 45.003906 -51.707031 C 46.917969 -50.078125 48.382812 -48.121094 49.390625 -45.835938 C 50.402344 -43.550781 50.90625 -41 50.90625 -38.183594 L 50.90625 0 L 39.9375 0 L 39.9375 -7.890625 L 39.726562 -7.890625 C 38.957031 -6.398438 37.898438 -4.980469 36.546875 -3.640625 C 35.195312 -2.296875 33.445312 -1.210938 31.289062 -0.378906 C 29.136719 0.457031 26.460938 0.871094 23.265625 0.871094 Z M 25.535156 -8.0625 C 28.804688 -8.0625 31.507812 -8.65625 33.636719 -9.84375 C 35.765625 -11.027344 37.347656 -12.585938 38.375 -14.519531 C 39.40625 -16.449219 39.921875 -18.558594 39.921875 -20.847656 L 39.921875 -27.351562 C 39.535156 -27.0625 38.910156 -26.785156 38.042969 -26.523438 C 37.175781 -26.261719 36.125 -26.007812 34.894531 -25.761719 C 33.664062 -25.515625 32.335938 -25.28125 30.90625 -25.050781 C 29.480469 -24.820312 28.027344 -24.601562 26.554688 -24.398438 C 24.535156 -24.121094 22.648438 -23.660156 20.890625 -23.007812 C 19.132812 -22.359375 17.710938 -21.453125 16.628906 -20.296875 C 15.550781 -19.140625 15.007812 -17.613281 15.007812 -15.710938 C 15.007812 -14.128906 15.4375 -12.765625 16.296875 -11.617188 C 17.15625 -10.46875 18.375 -9.589844 19.949219 -8.980469 C 21.527344 -8.371094 23.390625 -8.0625 25.535156 -8.0625 Z"/>
    <path id="word-y" d="M 7 22.042969 L 7 12.671875 L 13.015625 12.671875 C 14.203125 12.671875 15.222656 12.449219 16.082031 12 C 16.941406 11.554688 17.707031 10.859375 18.382812 9.917969 C 19.058594 8.972656 19.675781 7.75 20.234375 6.25 L 22.789062 -0.390625 L 1.257812 -55.6875 L 13.164062 -55.6875 L 24.285156 -25.144531 C 25.324219 -22.277344 26.324219 -19.402344 27.28125 -16.523438 C 28.242188 -13.648438 29.167969 -10.773438 30.066406 -7.898438 L 27.03125 -7.898438 C 27.914062 -10.773438 28.84375 -13.648438 29.8125 -16.53125 C 30.78125 -19.410156 31.773438 -22.28125 32.792969 -25.144531 L 43.789062 -55.6875 L 55.523438 -55.6875 L 30.234375 9.746094 C 29.183594 12.445312 27.886719 14.707031 26.335938 16.527344 C 24.785156 18.351562 22.988281 19.726562 20.945312 20.652344 C 18.898438 21.578125 16.613281 22.042969 14.078125 22.042969 Z"/>
  </defs>
  <g transform="translate(250 164) scale(1.2)" fill="#002559">
    <use href="#word-k" x="16"/>
    <use href="#word-l" x="86.34375"/>
    <use href="#word-e" x="110.015625"/>
    <use href="#word-i" x="168.8125"/>
    <use href="#word-n" x="192.484375"/>
    <use href="#word-f" x="278.65625"/>
    <use href="#word-o" x="313"/>
    <use href="#word-r" x="373.4375"/>
    <use href="#word-cap-r" x="435.828125"/>
    <use href="#word-a" x="503.59375"/>
    <use href="#word-y" x="558.234375"/>
  </g>
</svg>
